<?xml version="1.0" encoding="UTF-8" standalone="no"?>
<!-- Generator: Adobe Illustrator 18.1.1, SVG Export Plug-In . SVG Version: 6.00 Build 0)  -->

<svg
   xmlns:dc="http://purl.org/dc/elements/1.1/"
   xmlns:cc="http://creativecommons.org/ns#"
   xmlns:rdf="http://www.w3.org/1999/02/22-rdf-syntax-ns#"
   xmlns:svg="http://www.w3.org/2000/svg"
   xmlns="http://www.w3.org/2000/svg"
   xmlns:sodipodi="http://sodipodi.sourceforge.net/DTD/sodipodi-0.dtd"
   xmlns:inkscape="http://www.inkscape.org/namespaces/inkscape"
   version="1.1"
   id="Capa_1"
   x="0px"
   y="0px"
   viewBox="0 0 26.676 17.106042"
   xml:space="preserve"
   sodipodi:docname="back.svg"
   width="26.676001"
   height="17.106043"
   inkscape:version="0.92.5 (2060ec1f9f, 2020-04-08)"><metadata
   id="metadata71"><rdf:RDF><cc:Work
       rdf:about=""><dc:format>image/svg+xml</dc:format><dc:type
         rdf:resource="http://purl.org/dc/dcmitype/StillImage" /><dc:title></dc:title></cc:Work></rdf:RDF></metadata><defs
   id="defs69" /><sodipodi:namedview
   pagecolor="#ffffff"
   bordercolor="#666666"
   borderopacity="1"
   objecttolerance="10"
   gridtolerance="10"
   guidetolerance="10"
   inkscape:pageopacity="0"
   inkscape:pageshadow="2"
   inkscape:window-width="1920"
   inkscape:window-height="1016"
   id="namedview67"
   showgrid="false"
   fit-margin-top="0"
   fit-margin-left="0"
   fit-margin-right="0"
   fit-margin-bottom="0"
   inkscape:zoom="25.022821"
   inkscape:cx="12.926197"
   inkscape:cy="5.0409676"
   inkscape:window-x="0"
   inkscape:window-y="27"
   inkscape:window-maximized="1"
   inkscape:current-layer="Capa_1" />
<g
   id="g34"
   transform="translate(0,-0.02938514)">
	<path
   d="m 26.105,17.135341 c -0.229,0 -0.439,-0.131 -0.529,-0.346 v 0 c -0.066,-0.156 -1.716,-3.857 -7.885,-4.59 -1.285,-0.156 -2.824,-0.236 -4.693,-0.25 v 4.613 c 0,0.213 -0.115,0.406 -0.304,0.508 -0.188,0.098 -0.413,0.084 -0.588,-0.033 L 0.254,9.0593412 c -0.16,-0.107 -0.254,-0.287 -0.254,-0.476 0,-0.191 0.094,-0.365 0.254,-0.477 L 12.111,0.12734125 c 0.175,-0.121 0.398,-0.129 0.588,-0.029 0.19,0.102 0.303,0.295 0.303,0.502 V 4.8933412 c 2.578,0.336 13.674,2.33 13.674,11.6739998 0,0.271 -0.191,0.508 -0.459,0.562 -0.037,0.006 -0.076,0.006 -0.112,0.006 z"
   id="path2"
   inkscape:connector-curvature="0" />
	<g
   id="g4">
	</g>
	<g
   id="g6">
	</g>
	<g
   id="g8">
	</g>
	<g
   id="g10">
	</g>
	<g
   id="g12">
	</g>
	<g
   id="g14">
	</g>
	<g
   id="g16">
	</g>
	<g
   id="g18">
	</g>
	<g
   id="g20">
	</g>
	<g
   id="g22">
	</g>
	<g
   id="g24">
	</g>
	<g
   id="g26">
	</g>
	<g
   id="g28">
	</g>
	<g
   id="g30">
	</g>
	<g
   id="g32">
	</g>
</g>
<g
   id="g36"
   transform="translate(0,-0.02938514)">
</g>
<g
   id="g38"
   transform="translate(0,-0.02938514)">
</g>
<g
   id="g40"
   transform="translate(0,-0.02938514)">
</g>
<g
   id="g42"
   transform="translate(0,-0.02938514)">
</g>
<g
   id="g44"
   transform="translate(0,-0.02938514)">
</g>
<g
   id="g46"
   transform="translate(0,-0.02938514)">
</g>
<g
   id="g48"
   transform="translate(0,-0.02938514)">
</g>
<g
   id="g50"
   transform="translate(0,-0.02938514)">
</g>
<g
   id="g52"
   transform="translate(0,-0.02938514)">
</g>
<g
   id="g54"
   transform="translate(0,-0.02938514)">
</g>
<g
   id="g56"
   transform="translate(0,-0.02938514)">
</g>
<g
   id="g58"
   transform="translate(0,-0.02938514)">
</g>
<g
   id="g60"
   transform="translate(0,-0.02938514)">
</g>
<g
   id="g62"
   transform="translate(0,-0.02938514)">
</g>
<g
   id="g64"
   transform="translate(0,-0.02938514)">
</g>
</svg>