<?xml version="1.0" encoding="UTF-8" standalone="no"?>
<svg
   xmlns:dc="http://purl.org/dc/elements/1.1/"
   xmlns:cc="http://creativecommons.org/ns#"
   xmlns:rdf="http://www.w3.org/1999/02/22-rdf-syntax-ns#"
   xmlns:svg="http://www.w3.org/2000/svg"
   xmlns="http://www.w3.org/2000/svg"
   xmlns:sodipodi="http://sodipodi.sourceforge.net/DTD/sodipodi-0.dtd"
   xmlns:inkscape="http://www.inkscape.org/namespaces/inkscape"
   version="1.1"
   x="0px"
   y="0px"
   viewBox="0.761 15.555 100 52.784996"
   enable-background="new 0.761 15.555 100 71.028"
   xml:space="preserve"
   id="svg16"
   sodipodi:docname="tractor.svg"
   width="100"
   height="52.785"
   inkscape:version="0.92.5 (2060ec1f9f, 2020-04-08)"><metadata
     id="metadata22"><rdf:RDF><cc:Work
         rdf:about=""><dc:format>image/svg+xml</dc:format><dc:type
           rdf:resource="http://purl.org/dc/dcmitype/StillImage" /><dc:title></dc:title></cc:Work></rdf:RDF></metadata><defs
     id="defs20" /><sodipodi:namedview
     pagecolor="#ffffff"
     bordercolor="#666666"
     borderopacity="1"
     objecttolerance="10"
     gridtolerance="10"
     guidetolerance="10"
     inkscape:pageopacity="0"
     inkscape:pageshadow="2"
     inkscape:window-width="2560"
     inkscape:window-height="1403"
     id="namedview18"
     showgrid="false"
     showborder="true"
     inkscape:zoom="7.5182607"
     inkscape:cx="80.63856"
     inkscape:cy="33.863965"
     inkscape:window-x="1920"
     inkscape:window-y="0"
     inkscape:window-maximized="1"
     inkscape:current-layer="g4059" /><g
     id="g10"
     transform="matrix(-0.74576233,0,0,0.74576233,76.037021,3.6617604)"><path
       d="m 22.033,57.113 c -4.521,0 -8.193,3.678 -8.193,8.196 0,4.518 3.673,8.195 8.193,8.195 4.521,0 8.194,-3.677 8.194,-8.194 0.002,-4.519 -3.673,-8.197 -8.194,-8.197 z"
       id="path2"
       inkscape:connector-curvature="0" /><path
       d="m 22.03,44.042 c -11.728,0 -21.269,9.539 -21.269,21.269 0,11.729 9.542,21.272 21.269,21.272 11.73,0 21.276,-9.544 21.276,-21.272 C 43.307,53.581 33.76,44.042 22.03,44.042 Z m 0.003,33.247 c -6.604,0 -11.978,-5.372 -11.978,-11.979 0,-6.607 5.373,-11.98 11.978,-11.98 6.605,0 11.978,5.374 11.978,11.98 0,6.606 -5.373,11.979 -11.978,11.979 z"
       id="path4"
       inkscape:connector-curvature="0" /><path
       d="m 85.608,56.281 c -8.355,0 -15.146,6.795 -15.146,15.148 0,8.354 6.79,15.152 15.146,15.152 8.352,0 15.152,-6.798 15.152,-15.152 10e-4,-8.353 -6.8,-15.148 -15.152,-15.148 z m 0,22.278 c -3.938,0 -7.129,-3.191 -7.129,-7.129 0,-3.938 3.19,-7.127 7.129,-7.127 3.938,0 7.131,3.188 7.131,7.127 0,3.937 -3.193,7.129 -7.131,7.129 z"
       id="path6"
       inkscape:connector-curvature="0" /><path
       d="m 73.331,57.724 c -3.168,-2.479 -8.267,-5.54 -15.18,-7.045 v -1.922 c 7.762,1.592 13.361,5.014 16.717,7.721 3.027,-2.188 6.729,-3.493 10.74,-3.493 2.176,0 4.254,0.399 6.188,1.097 -0.203,-4.749 -0.79,-9.751 -2.372,-10.35 C 81.638,40.833 71.493,39.099 63.312,38.367 V 23.288 c 0,-2.117 1.055,-2.608 1.203,-2.668 1.008,-0.283 1.594,-1.331 1.307,-2.336 -0.284,-1.003 -1.318,-1.582 -2.335,-1.303 -1.471,0.417 -3.959,2.21 -3.959,6.307 V 38.087 C 58.949,38.054 58.403,38.034 57.86,38.012 L 53.434,18.969 C 53.261,18.23 52.667,17.665 51.921,17.534 51.009,17.374 29.4,13.617 13.147,16.889 c -1.023,0.206 -1.688,1.203 -1.484,2.228 0.206,1.024 1.199,1.693 2.229,1.481 0.226,-0.045 0.461,-0.076 0.688,-0.118 l -2.984,17.358 c -0.005,0.036 0.008,0.072 0.003,0.111 h -0.671 c -3.576,0 -4.288,2.306 -4.288,2.306 l -2.191,5.492 1.821,0.905 c 4.259,-3.604 9.759,-5.789 15.759,-5.789 13.486,0 24.453,10.97 24.453,24.449 0,2.365 -0.354,4.644 -0.984,6.808 H 67.26 c -0.009,-0.25 -0.037,-0.496 -0.037,-0.75 0,-5.417 2.367,-10.277 6.108,-13.646 z M 80.554,44.46 c 0.484,-0.189 1.032,0.049 1.229,0.535 l 1.534,3.911 c 0.191,0.485 -0.051,1.033 -0.535,1.226 -0.114,0.042 -0.229,0.064 -0.347,0.064 -0.376,0 -0.731,-0.228 -0.88,-0.599 L 80.019,45.686 C 79.829,45.2 80.068,44.65 80.554,44.46 Z m -4.458,0 c 0.479,-0.189 1.033,0.049 1.226,0.535 l 1.536,3.911 c 0.19,0.485 -0.051,1.033 -0.536,1.226 -0.114,0.042 -0.23,0.064 -0.347,0.064 -0.379,0 -0.733,-0.228 -0.881,-0.599 L 75.56,45.686 C 75.369,45.2 75.608,44.65 76.096,44.46 Z M 31.714,38.887 C 30.227,38.4 28.791,38.049 27.53,37.949 H 15.417 L 18.212,21.692 H 31.714 Z M 54.365,53.455 47.512,53.447 C 45.237,47.339 40.361,42.975 35.496,40.453 v -18.76 h 14.686 l 4.181,17.999 v 13.764 h 0.002 z"
       id="path8"
       inkscape:connector-curvature="0" /></g><text
     x="0.76099998"
     y="65.583"
     font-size="5px"
     font-weight="bold"
     id="text12"
     style="font-weight:bold;font-size:5px;font-family:'Helvetica Neue', Helvetica, Arial-Unicode, Arial, Sans-serif;fill:#000000" />
<text
     x="0.76099998"
     y="70.583"
     font-size="5px"
     font-weight="bold"
     id="text14"
     style="font-weight:bold;font-size:5px;font-family:'Helvetica Neue', Helvetica, Arial-Unicode, Arial, Sans-serif;fill:#000000" />
<flowRoot
     xml:space="preserve"
     id="flowRoot3727"
     style="font-style:normal;font-weight:normal;font-size:40px;line-height:1.25;font-family:sans-serif;letter-spacing:0px;word-spacing:0px;fill:#000000;fill-opacity:1;stroke:none"
     transform="translate(0.761,-20.445106)"><flowRegion
       id="flowRegion3729"><rect
         id="rect3731"
         width="101.95227"
         height="73.360489"
         x="-0.37620765"
         y="0" /></flowRegion><flowPara
       id="flowPara3733"></flowPara></flowRoot><g
     id="g3859"
     transform="matrix(0.98043569,0,0,0.96990986,-2502.71,-1115.115)"><text
       id="text3835"
       font-weight="bold"
       font-size="5px"
       y="120"
       x="0"
       style="font-weight:bold;font-size:5px;font-family:'Helvetica Neue', Helvetica, Arial-Unicode, Arial, Sans-serif;fill:#000000" />
<g
       id="g4059"
       transform="matrix(1.0199547,0,0,1.0310236,2597.6446,1117.6942)"><g
         id="g4038"
         transform="rotate(-90,62.425588,69.952675)"><path
           id="path4030"
           d="m 63.925621,36.891448 c 1.147616,1.518725 3.309547,3.353496 4.830669,4.103521 1.519955,0.74945 1.830071,0.133577 0.682455,-1.385147 -1.14674,-1.517564 -3.309841,-3.35437 -4.830382,-4.10411 -1.520688,-0.749445 -1.829482,-0.131829 -0.682737,1.38574 z"
           inkscape:connector-curvature="0"
           style="fill:#000000;stroke-width:0.4610078" /><path
           id="path4032"
           d="m 41.868344,43.90703 c 1.365487,12.654614 12.403137,21.600435 24.603919,19.941045 0.996414,-0.134194 1.713759,-1.080664 1.602139,-2.113855 -0.05505,-0.516967 -0.307513,-0.957719 -0.670274,-1.251725 C 67.041373,60.188488 66.567736,60.040774 66.068576,60.108532 55.856012,61.494844 46.617201,54.004083 45.475183,43.417949 45.364012,42.384162 44.46386,41.654608 43.46992,41.79272 c -0.996297,0.135247 -1.714096,1.082303 -1.601576,2.11431 z"
           inkscape:connector-curvature="0"
           style="fill:#000000;stroke-width:0.73273164" /><path
           id="path4034"
           d="m 54.415799,53.555441 c 3.515809,2.8495 7.914007,4.085077 12.383427,3.475716 0.997308,-0.13539 1.714659,-1.081848 1.602139,-2.113857 -0.05559,-0.517423 -0.307513,-0.957717 -0.669713,-1.251268 -0.362755,-0.294008 -0.83639,-0.441721 -1.335551,-0.373961 -3.505681,0.476411 -6.956507,-0.491382 -9.714235,-2.726472 -2.757729,-2.235091 -4.491049,-5.468957 -4.883024,-9.104352 -0.110713,-1.034378 -1.006943,-1.760747 -2.005263,-1.625231 -0.996745,0.135841 -1.712749,1.080528 -1.602137,2.113859 0.49808,4.636392 2.708547,8.756065 6.224357,11.605566 z"
           inkscape:connector-curvature="0"
           style="fill:#000000;stroke-width:0.73273164" /><path
           id="path4036"
           d="m 58.916059,47.617807 c 2.384867,1.932892 5.366779,2.768271 8.395978,2.356007 0.995739,-0.135698 1.713985,-1.083348 1.602811,-2.117136 -0.113859,-1.030232 -1.010424,-1.759743 -2.007731,-1.624361 -2.065574,0.283052 -4.097532,-0.289149 -5.723757,-1.607175 -1.626222,-1.318025 -2.650506,-3.225728 -2.881859,-5.367526 -0.05505,-0.516966 -0.307526,-0.957715 -0.670277,-1.251725 -0.362754,-0.294006 -0.836951,-0.442177 -1.334987,-0.373507 -0.996747,0.135841 -1.714546,1.082897 -1.602587,2.11445 0.340038,3.142979 1.83923,5.939449 4.222409,7.870973 z"
           inkscape:connector-curvature="0"
           style="fill:#000000;stroke-width:0.73273164" /></g></g></g></svg>